<svg xmlns="http://www.w3.org/2000/svg" viewBox="0 0 100 133">
  <path fill="#e8803a" d="M30.7,5 L69.3,5 C73.5,5 74,6 74,9 L74,17 C74,20 72,23 69,26 C66,29 63,31 61.3,35 C60,38.5 59.5,40 59.5,42 C59.2,45 59.8,48 61,52 C62.5,56 64.5,60 67,65 C70,71 73.5,76 77,81 C79.5,85 80,88 79,92 C78,95.5 75,97.5 72,98.5 L64,100 C60,100.5 55,101 50,101 C45,101 40,100.5 36,100 L28,98.5 C25,97.5 22,95.5 21,92 C20,88 20.5,85 23,81 C26.5,76 30,71 33,65 C35.5,60 37.5,56 39,52 C40.2,48 40.8,45 40.5,42 C40.5,40 40,38.5 38.7,35 C37,31 34,29 31,26 C28,23 26,20 26,17 L26,9 C26,6 26.5,5 30.7,5 Z"/>
</svg>
